<?xml version="1.0" encoding="UTF-8" standalone="no"?>
<svg width="30px" height="30px" viewBox="0 0 84 84" version="1.1" xmlns="http://www.w3.org/2000/svg" xmlns:xlink="http://www.w3.org/1999/xlink">
    <!-- Generator: Sketch 3.6.1 (26313) - http://www.bohemiancoding.com/sketch -->
    <title>Artboard 1</title>
    <desc>Created with Sketch.</desc>
    <defs></defs>
    <g id="Page-1" stroke="none" stroke-width="1" fill="none" fill-rule="evenodd">
        <g id="Artboard-1" fill="#FFFFFF">
            <path d="M73.375,71.2174511 L67.2174219,71.2174511 L42.5985547,20.9496386 L44.6358203,16.7835449 C44.9105078,16.2112792 44.6816016,15.5245605 44.1093359,15.249873 C43.5370703,14.9751855 42.8503516,15.2040917 42.5756641,15.7763574 L41.328125,18.3515527 L40.0691406,15.7763574 C39.7944531,15.2040917 39.1077344,14.9751855 38.5354688,15.249873 C37.9632031,15.5245605 37.7342969,16.2112792 38.0089844,16.7835449 L40.04625,20.9496386 L15.4388281,71.2174511 L9.28125,71.2174511 C8.65175781,71.2174511 8.13671875,71.7324902 8.13671875,72.3619824 C8.13671875,72.9914746 8.65175781,73.5065136 9.28125,73.5065136 L73.375,73.5065136 C74.0044922,73.5065136 74.5195313,72.9914746 74.5195313,72.3619824 C74.5195313,71.7324902 74.0044922,71.2174511 73.375,71.2174511 L73.375,71.2174511 Z M41.328125,53.9235839 L47.7031641,71.2174511 L34.9530859,71.2174511 L41.328125,53.9235839 L41.328125,53.9235839 Z M32.8585937,70.2903808 L29.1503125,66.5820996 L38.0547656,56.2012011 L32.8585937,70.2903808 L32.8585937,70.2903808 Z M44.6014844,56.2012011 L53.5059375,66.5820996 L49.7976563,70.2903808 L44.6014844,56.2012011 L44.6014844,56.2012011 Z M55.8751172,67.4519433 C56.2985938,67.0284667 56.3214844,66.3531933 55.9323438,65.8953808 L42.4726563,50.1924121 L42.4726563,45.3624902 L45.0821875,47.9720214 L45.90625,48.7846386 L51.1253125,43.5655761 L64.6765625,71.2174511 L52.0981641,71.2174511 L55.8751172,67.4519433 L55.8751172,67.4519433 Z M50.0723438,41.4024121 L45.90625,45.5685058 L42.1521875,41.8144433 L42.1407422,41.802998 L42.1407422,41.802998 L41.328125,41.0018261 L40.5269531,41.802998 L40.5269531,41.802998 L36.75,45.5685058 L32.5839062,41.4024121 L41.328125,23.5591699 L50.0723438,41.4024121 L50.0723438,41.4024121 Z M31.5194922,43.5770214 L35.9259375,47.9834667 L36.75,48.7960839 L40.1835937,45.3624902 L40.1835937,50.1924121 L26.7239062,65.8953808 C26.3347656,66.3531933 26.3576562,67.0284667 26.7811328,67.4519433 L30.5580859,71.2174511 L17.9796875,71.2174511 L31.5194922,43.5770214 L31.5194922,43.5770214 Z" id="Shape"></path>
            <path d="M66.0985107,25.4576635 C69.8640185,25.4576635 73.2060498,22.985476 74.4192529,19.3000853 C74.5565966,18.8766088 74.4421435,18.407351 74.1102294,18.0983275 C73.7783154,17.7893041 73.2976123,17.7091869 72.885581,17.8808666 C72.0615185,18.2356713 71.1916748,18.407351 70.2989404,18.407351 C66.4990966,18.407351 63.4203076,15.1912182 63.4203076,11.2425853 C63.4203076,10.7275463 63.4775341,10.2010619 63.5919873,9.66313222 C63.6835498,9.22821035 63.5118701,8.77039785 63.1570654,8.49571035 C62.7908154,8.23246816 62.3101123,8.19813222 61.9209716,8.41559316 C59.0710888,10.0064916 57.3085107,13.06239 57.3085107,16.392976 C57.3085107,21.3945775 61.2571435,25.4576635 66.0985107,25.4576635 L66.0985107,25.4576635 Z M61.1541357,11.9865307 C61.5203857,16.8507885 65.4804638,20.6964135 70.2989404,20.6964135 C70.5736279,20.6964135 70.8597607,20.6849682 71.1344482,20.6620775 C69.9212451,22.2071947 68.0899951,23.1571557 66.0985107,23.1571557 C62.5161279,23.1571557 59.5975732,20.1241478 59.5975732,16.3815307 C59.5975732,14.7562963 60.1698388,13.1997338 61.1541357,11.9865307 L61.1541357,11.9865307 Z" id="Shape"></path>
            <path d="M11.5683101,30.0069174 L13.3881148,30.0069174 L16.1464351,32.7652377 L16.1464351,34.5850424 C16.1464351,35.2145346 16.6614742,35.7295737 17.2909663,35.7295737 C17.9204585,35.7295737 18.4354976,35.2145346 18.4354976,34.5850424 L18.4354976,32.7652377 L21.1938179,30.0069174 L23.0136226,30.0069174 C23.6431148,30.0069174 24.1581538,29.4918784 24.1581538,28.8623862 C24.1581538,28.232894 23.6431148,27.7178549 23.0136226,27.7178549 L21.1938179,27.7178549 L18.4354976,24.9595346 L18.4354976,23.1397299 C18.4354976,22.5102377 17.9204585,21.9951987 17.2909663,21.9951987 C16.6614742,21.9951987 16.1464351,22.5102377 16.1464351,23.1397299 L16.1464351,24.9595346 L13.3881148,27.7178549 L11.5683101,27.7178549 C10.9388179,27.7178549 10.4237788,28.232894 10.4237788,28.8623862 C10.4237788,29.4918784 10.9388179,30.0069174 11.5683101,30.0069174 L11.5683101,30.0069174 Z M17.2909663,27.0425815 L19.110771,28.8623862 L17.2909663,30.6821909 L15.4711617,28.8623862 L17.2909663,27.0425815 L17.2909663,27.0425815 Z" id="Shape"></path>
        </g>
    </g>
</svg>